<?xml version="1.0" standalone="no"?><!DOCTYPE svg PUBLIC "-//W3C//DTD SVG 1.1//EN" "http://www.w3.org/Graphics/SVG/1.1/DTD/svg11.dtd"><svg t="1750160395468" class="icon" viewBox="0 0 1280 1024" version="1.1" xmlns="http://www.w3.org/2000/svg" p-id="47369" xmlns:xlink="http://www.w3.org/1999/xlink" width="250" height="200"><path d="M1110.4 0H169.6A169.6 169.6 0 0 0 0 169.6v684.8A169.6 169.6 0 0 0 169.6 1024h940.8a169.6 169.6 0 0 0 169.6-169.6V169.6A169.6 169.6 0 0 0 1110.4 0z m83.2 854.4a83.2 83.2 0 0 1-83.2 83.2H169.6a83.2 83.2 0 0 1-83.2-83.2V169.6a83.2 83.2 0 0 1 83.2-83.2h940.8a83.2 83.2 0 0 1 83.2 83.2z" fill="#ffffff" p-id="47370"></path><path d="M1065.6 470.4h-256a41.6 41.6 0 1 0 0 83.2h256a41.6 41.6 0 1 0 0-83.2z m0 169.6h-256a41.6 41.6 0 0 0-41.6 41.6 41.6 41.6 0 0 0 41.6 44.8h256a44.8 44.8 0 0 0 44.8-44.8 41.6 41.6 0 0 0-44.8-41.6z m0-342.4h-256a41.6 41.6 0 0 0-41.6 44.8 41.6 41.6 0 0 0 41.6 41.6h256a41.6 41.6 0 0 0 44.8-41.6 44.8 44.8 0 0 0-44.8-44.8z m-406.4-19.2a54.4 54.4 0 0 0-41.6-22.4 67.2 67.2 0 0 0-60.8 28.8L454.4 384l-259.2-48H192a32 32 0 0 0-22.4 22.4 48 48 0 0 0 22.4 41.6l163.2 96-57.6 54.4H220.8l-44.8 44.8L297.6 640l48 124.8 44.8-48V640l57.6-54.4 92.8 160a48 48 0 0 0 35.2 19.2 32 32 0 0 0 25.6-19.2v-6.4L553.6 480l102.4-96a80 80 0 0 0 25.6-64 54.4 54.4 0 0 0-22.4-41.6z" fill="#ffffff" p-id="47371"></path></svg>