<?xml version="1.0" standalone="no"?><!DOCTYPE svg PUBLIC "-//W3C//DTD SVG 1.1//EN" "http://www.w3.org/Graphics/SVG/1.1/DTD/svg11.dtd"><svg t="1750150324606" class="icon" viewBox="0 0 1024 1024" version="1.1" xmlns="http://www.w3.org/2000/svg" p-id="3637" xmlns:xlink="http://www.w3.org/1999/xlink" width="200" height="200"><path d="M170.666667 128a32 32 0 0 1 32 32v195.968c0 36.778667 14.592 72.064 40.618666 98.048l22.826667 22.869333c14.037333 13.994667 21.888 32.981333 21.888 52.778667v249.002667a53.333333 53.333333 0 1 0 106.666667 0v-249.002667c0-19.797333 7.850667-38.784 21.888-52.778667l22.826666-22.869333a138.666667 138.666667 0 0 0 40.618667-98.048V160a32 32 0 0 1 64 0v195.968c0 53.76-21.333333 105.301333-59.349333 143.317333l-22.869334 22.826667a10.666667 10.666667 0 0 0-3.114666 7.552v249.002667a117.333333 117.333333 0 1 1-234.666667 0v-249.002667a10.666667 10.666667 0 0 0-3.114667-7.552l-22.869333-22.826667 22.613333-22.613333-22.613333 22.613333A202.666667 202.666667 0 0 1 138.666667 355.968V160A32 32 0 0 1 170.666667 128zM789.333333 192V810.666667a21.333333 21.333333 0 0 1-42.666666 0v-195.669334a106.666667 106.666667 0 0 0-31.232-75.434666l-35.370667-35.328a64 64 0 0 1-18.730667-45.226667V256A64 64 0 0 1 725.333333 192h64zM725.333333 128a128 128 0 0 0-128 128v202.965333a128 128 0 0 0 37.504 90.538667l35.328 35.328a42.666667 42.666667 0 0 1 12.501334 30.165333V810.666667a85.333333 85.333333 0 1 0 170.666666 0V170.666667a42.666667 42.666667 0 0 0-42.666666-42.666667h-85.333334z" fill="#707070" p-id="3638"></path><path d="M288 128a32 32 0 0 1 32 32v149.333333a32 32 0 0 1-64 0v-149.333333A32 32 0 0 1 288 128zM394.666667 128a32 32 0 0 1 32 32v149.333333a32 32 0 0 1-64 0v-149.333333A32 32 0 0 1 394.666667 128z" fill="#707070" p-id="3639"></path></svg>