<?xml version="1.0" standalone="no"?><!DOCTYPE svg PUBLIC "-//W3C//DTD SVG 1.1//EN" "http://www.w3.org/Graphics/SVG/1.1/DTD/svg11.dtd"><svg t="1750160879790" class="icon" viewBox="0 0 1024 1024" version="1.1" xmlns="http://www.w3.org/2000/svg" p-id="61144" xmlns:xlink="http://www.w3.org/1999/xlink" width="200" height="200"><path d="M772.25 960c-103.39 0-187.5-84.11-187.5-187.5S668.86 585 772.25 585s187.5 84.11 187.5 187.5S875.64 960 772.25 960z m0-315c-70.3 0-127.5 57.2-127.5 127.5S701.95 900 772.25 900s127.5-57.2 127.5-127.5S842.55 645 772.25 645zM576 518c-113.68 0-206.17-92.49-206.17-206.17S462.32 105.67 576 105.67s206.17 92.49 206.17 206.17S689.68 518 576 518z m0-348.33c-78.39 0-142.17 63.78-142.17 142.17S497.61 454 576 454s142.17-63.78 142.17-142.17S654.39 169.67 576 169.67z" p-id="61145" fill="#ffffff"></path><path d="M604.5 960.33H191.77l0.23-32.23c0.39-53.88 10.74-106.14 30.77-155.32 19.39-47.62 47.01-90.38 82.07-127.1 35.19-36.85 76.15-65.79 121.75-86.02C473.93 538.65 524.2 528 576 528c36.1 0 71.85 5.26 106.24 15.64 16.92 5.1 26.5 22.96 21.4 39.88-5.1 16.92-22.96 26.5-39.88 21.4C635.36 596.34 605.84 592 576 592c-164.85 0-301.73 133.82-318.32 304.33H604.5c17.67 0 32 14.33 32 32s-14.33 32-32 32z" p-id="61146" fill="#ffffff"></path><path d="M555.34 854.72c-9.09 0-18.11-3.85-24.44-11.33l-53.83-63.62 70.7-132.82c8.3-15.6 27.69-21.51 43.28-13.21 15.6 8.3 21.52 27.68 13.21 43.28l-50.32 94.52 25.81 30.5c11.42 13.49 9.73 33.68-3.76 45.1-6 5.1-13.35 7.58-20.65 7.58zM96.03 895.98c-0.94 0-1.89-0.04-2.84-0.13-17.59-1.55-30.6-17.03-29.07-34.62 0.27-3.14 7.09-77.87 43.64-167.22 21.6-52.8 49.19-99.93 82.01-140.09 33.39-40.85 72.23-74.49 115.8-100.32-24.46-40.37-59.75-115.11-50.52-199.22 7.71-70.25 44.39-131.96 109.03-183.41 13.83-11.01 33.96-8.72 44.97 5.11 11.01 13.83 8.72 33.96-5.11 44.97-50.8 40.44-79.49 87.65-85.27 140.32-10.65 97.08 57.53 182.67 58.22 183.52a32.037 32.037 0 0 1 6.34 27.15 31.98 31.98 0 0 1-17.36 21.81C277.94 536.09 211.27 611 167.71 716.49c-33.29 80.62-39.77 149.63-39.83 150.32-1.49 16.63-15.46 29.17-31.85 29.17zM753.04 848.67v-31.48h-37.58c-8.13 0-12.19-3.71-12.19-11.17 0.67-6.09 4.73-9.81 12.19-11.17h37.58v-17.27h-37.58c-8.13 0-12.19-3.71-12.19-11.17 0.67-6.09 4.73-9.81 12.19-11.17h21.33l-32.5-45.7c-3.4-2.7-4.75-6.43-4.06-11.17 0.67-11.5 7.11-17.93 19.3-19.3 6.09 0.68 11.17 3.4 15.23 8.13l37.58 53.83 37.58-53.83c3.38-4.73 8.46-7.44 15.23-8.13 11.5 1.37 17.93 7.79 19.3 19.3 0 4.75-1.36 8.47-4.06 11.17l-32.5 45.7h21.33c6.76 1.37 10.82 5.08 12.19 11.17-0.68 7.46-4.75 11.17-12.19 11.17h-37.58v17.27h37.58c6.76 1.37 10.82 5.08 12.19 11.17-0.68 7.46-4.75 11.17-12.19 11.17h-37.58v31.48c-0.68 11.52-7.11 17.27-19.3 17.27-12.87 0-19.3-5.75-19.3-17.27z" p-id="61147" fill="#ffffff"></path></svg>