<?xml version="1.0" standalone="no"?><!DOCTYPE svg PUBLIC "-//W3C//DTD SVG 1.1//EN" "http://www.w3.org/Graphics/SVG/1.1/DTD/svg11.dtd"><svg t="1750160460581" class="icon" viewBox="0 0 1024 1024" version="1.1" xmlns="http://www.w3.org/2000/svg" p-id="51864" xmlns:xlink="http://www.w3.org/1999/xlink" width="200" height="200"><path d="M382.5152 372.6336c14.592-57.4464 66.56-100.096 128.4608-100.096 61.5936 0 113.408 42.2912 128.256 99.2768 95.6928-22.3744 175.5648-68.608 224.9728-128.6144-2.6624-78.1824-66.7648-140.8-145.6128-140.8h-413.184c-80.5376 0-145.8176 65.28-145.8176 145.8176v1.6384C209.92 307.4048 288.768 351.4368 382.5152 372.6336z" p-id="51865" fill="#ffffff"></path><path d="M534.528 343.9616l-17.3056 36.096c-1.9968 4.2496-3.4816 8.192-4.5568 11.9296-0.9216-3.4304-2.4064-7.424-4.5568-11.9296l-16.9472-36.096h-26.112l26.368 53.4528h-22.1184v18.7392h31.4368v10.1888h-31.4368v18.7392h31.4368v23.1424h23.808v-23.1424h31.8464v-18.7392h-31.8464v-10.1888h31.8464v-18.7392h-22.4256l26.6752-53.4528h-26.112z" p-id="51866" fill="#ffffff"></path><path d="M642.7136 420.4032c-7.5776 65.9968-63.744 117.4528-131.7376 117.4528-67.6864 0-123.648-50.9952-131.584-116.6336-92.2624-20.0192-169.984-60.5696-219.8528-113.4592v467.968c0 80.5376 65.28 145.8176 145.8176 145.8176h413.2352c80.5376 0 145.8176-65.28 145.8176-145.8176V301.4656c-48.8448 55.2448-127.488 97.792-221.696 118.9376z" p-id="51867" fill="#ffffff"></path></svg>