<?xml version="1.0" standalone="no"?><!DOCTYPE svg PUBLIC "-//W3C//DTD SVG 1.1//EN" "http://www.w3.org/Graphics/SVG/1.1/DTD/svg11.dtd"><svg t="1750058039182" class="icon" viewBox="0 0 1024 1024" version="1.1" xmlns="http://www.w3.org/2000/svg" p-id="5056" xmlns:xlink="http://www.w3.org/1999/xlink" width="200" height="200"><path d="M160 576v173.76C160 846.368 245.392 928 346.464 928H416a48 48 0 0 0 48-48V576h112.352l2.32 304.368a48 48 0 0 0 48 47.632h57.696C783.424 928 864 848.032 864 749.76V576h57.072a47.968 47.968 0 0 0 33.936-81.936l-379.2-379.264a95.36 95.36 0 0 0-67.856-28.112c-25.664 0-49.76 10-67.904 28.128l-152.496 152.496C285.216 234.224 257.904 208 224.208 208h-0.4A63.792 63.792 0 0 0 160 271.792v112.4c0 3.488 0.48 6.592 1.024 9.664l-100.208 100.208A47.968 47.968 0 0 0 94.768 576H160z" p-id="5057" fill="#cdcdcd"></path></svg>