<?xml version="1.0" standalone="no"?><!DOCTYPE svg PUBLIC "-//W3C//DTD SVG 1.1//EN" "http://www.w3.org/Graphics/SVG/1.1/DTD/svg11.dtd"><svg t="1750160271801" class="icon" viewBox="0 0 1024 1024" version="1.1" xmlns="http://www.w3.org/2000/svg" p-id="38250" xmlns:xlink="http://www.w3.org/1999/xlink" width="200" height="200"><path d="M875.050667 797.546667c-42.304 41.066667-98.517333 63.594667-158.250667 63.594666h-0.234667c-59.925333-0.042667-116.202667-22.784-158.506666-63.957333-42.154667-41.173333-65.472-95.893333-65.408-154.154667 0.064-58.176 23.445333-112.832 65.792-153.941333 42.304-41.066667 98.581333-63.616 158.293333-63.616h0.256c59.904 0.064 116.117333 22.784 158.421333 63.978667 42.24 41.173333 65.493333 95.957333 65.429334 154.133333-0.064 58.197333-23.445333 112.853333-65.792 153.962667zM386.112 838.4h-1.493333c-181.12-0.234667-290.581333-36.906667-300.608-54.954667l0.106666-124.032c16.298667 7.36 35.285333 13.952 57.92 19.797334 65.173333 16.746667 151.402667 26.069333 242.645334 26.197333h1.301333c17.749333 0 34.218667-1.109333 51.264-1.770667 10.837333 47.893333 34.730667 91.882667 69.76 128.490667-38.101333 3.968-78.72 6.272-120.896 6.272zM84.373333 484.501333c77.333333 34.986667 209.877333 46.186667 300.544 46.250667h1.834667c24.106667 0 46.72-2.197333 69.973333-3.477333-16.896 35.946667-26.666667 75.008-26.752 115.712 0 0.426667 0.128 0.853333 0.128 1.216-15.36 0.725333-30.762667 1.088-45.290666 0.298666-180.992-0.234667-290.474667-36.864-300.565334-54.954666l0.128-105.024z m0.192-169.898666c16.213333 7.296 35.285333 14.016 57.898667 19.797333 65.173333 16.810667 151.402667 26.133333 242.645333 26.197333h1.066667c90.666667 0 222.464-11.029333 299.605333-45.653333l-0.064 52.544c-64.661333 6.762667-124.885333 33.194667-171.52 78.464-5.952 5.717333-10.389333 12.416-15.722666 18.517333-36.416 3.413333-75.456 4.693333-113.429334 5.354667-181.034667-0.170667-290.517333-36.8-300.586666-54.890667l0.106666-100.330666z m0.064-67.946667C96.213333 226.261333 204.8 190.421333 383.786667 190.421333h1.493333c174.208 0.213333 282.133333 34.133333 299.413333 54.954667-17.28 20.714667-124.757333 54.293333-298.24 54.293333h-1.237333C205.269333 299.477333 96.213333 263.296 84.629333 247.466667v-0.810667z m835.093334 199.722667c-46.570667-45.397333-106.730667-71.893333-171.328-78.848l0.128-122.090667c0.064-38.976-40.426667-69.141333-120.448-89.728-65.173333-16.832-151.402667-26.090667-242.645334-26.197333h-1.450666c-123.882667 0-287.253333 18.816-341.909334 71.893333-16.661333 16.128-20.117333 32.469333-20.117333 43.242667l-0.170667 170.24h-0.064c0 0.106667 0.064 0.170667 0.064 0.298666l-0.213333 174.293334H21.546667l0.064 0.256L21.333333 783.402667c-0.064 38.933333 40.426667 69.162667 120.512 89.749333 65.173333 16.810667 151.402667 26.069333 242.645334 26.197333h1.706666c67.733333 0 132.522667-5.290667 188.864-14.933333 42.794667 23.829333 90.794667 37.589333 141.376 37.653333h0.362667c76.394667 0 148.394667-28.864 202.474667-81.386666 54.208-52.650667 84.16-122.581333 84.224-197.034667 0.128-74.517333-29.632-144.512-83.776-197.269333z" fill="#707070" p-id="38251"></path><path d="M635.52 643.242667l81.344-78.890667 81.152 79.018667-81.344 78.933333-81.152-79.061333z m81.472-165.056l-170.090667 164.928 169.642667 165.333333 170.069333-164.970667-169.621333-165.290666z" fill="#707070" p-id="38252"></path></svg>