<?xml version="1.0" standalone="no"?><!DOCTYPE svg PUBLIC "-//W3C//DTD SVG 1.1//EN" "http://www.w3.org/Graphics/SVG/1.1/DTD/svg11.dtd"><svg t="1750160661757" class="icon" viewBox="0 0 1024 1024" version="1.1" xmlns="http://www.w3.org/2000/svg" p-id="59941" xmlns:xlink="http://www.w3.org/1999/xlink" width="200" height="200"><path d="M924.9 297.33L560.73 80.73c-20.18-12.03-45.54-12.47-66.21-1.18L96.1 298.13c-20.94 11.48-34.19 33.45-34.6 57.33-0.41 23.86 12.08 46.27 32.59 58.46l45.07 26.81c-33.92 62.04-51.79 131.55-51.79 201.88 0 18.32 1.49 37.28 4.67 59.66 2.8 19.71 20.57 33.54 40.31 31.94 13.21-1.2 24.04-1.75 34.07-1.75 29.4 0 58.3 3.43 86.22 10.03l-0.04 136.88c-0.01 20.62 16.71 37.35 37.32 37.35h0.01c20.61 0 37.32-16.72 37.33-37.32l0.03-110.64c60.33 28.75 112.79 73.63 151.1 131.27 6.92 10.43 18.59 16.68 31.1 16.68s24.18-6.25 31.1-16.68c69.72-104.93 186.34-167.58 311.98-167.58 10.04 0 20.86 0.55 34.07 1.75 19.91 1.66 37.53-12.27 40.32-31.96 3.17-22.4 4.65-41.36 4.65-59.65 0-71.48-18.47-142.12-53.47-204.93l44.74-24.54c20.93-11.48 34.19-33.45 34.6-57.31 0.42-23.86-12.06-46.28-32.58-58.48zM526.44 147.21l348.31 207.16-382.2 209.67-108.65-64.61 119.22-65.39c18.07-9.92 24.69-32.61 14.77-50.7-9.91-18.07-32.61-24.66-50.69-14.78l-157.8 86.56-165.15-98.23 382.19-209.68zM166.42 657.8c-1.31 0-2.63 0-3.96 0.02-0.29-5.23-0.43-10.26-0.43-15.2 0-56.91 14.27-113.22 41.35-163.68l49.33 29.34v0.02l-0.05 157.82a449.773 449.773 0 0 0-86.24-8.32z m690.53-15.19c0 4.94-0.14 9.97-0.43 15.2-1.32-0.02-2.63-0.02-3.95-0.02-133.33 0-258.17 58.79-343.08 159.47-49.31-58.47-112.08-102.8-182.17-129.71l0.04-134.88 130.9 77.86c10.45 6.22 22.28 9.33 34.12 9.33 11.05 0 22.11-2.72 32.07-8.17L812.69 473.6c28.97 51.81 44.26 110.09 44.26 169.01z" p-id="59942" fill="#ffffff"></path></svg>