<?xml version="1.0" standalone="no"?><!DOCTYPE svg PUBLIC "-//W3C//DTD SVG 1.1//EN" "http://www.w3.org/Graphics/SVG/1.1/DTD/svg11.dtd"><svg t="1750150606179" class="icon" viewBox="0 0 1024 1024" version="1.1" xmlns="http://www.w3.org/2000/svg" p-id="14014" xmlns:xlink="http://www.w3.org/1999/xlink" width="200" height="200"><path d="M537.6 710.4 256 582.4C230.4 569.6 204.8 576 185.6 588.8c0 0 0 6.4 0 6.4 0 32-25.6 57.6-51.2 57.6 0 0-6.4 0-6.4 0l-44.8 44.8C70.4 710.4 64 729.6 64 748.8l0 140.8C64 960 64 960 128 960l76.8 0c-6.4-6.4-12.8-19.2-12.8-25.6 0-19.2 12.8-38.4 32-38.4S256 915.2 256 934.4C256 947.2 256 953.6 243.2 960L512 960c64 0 64 0 64-70.4l0-115.2C576 748.8 556.8 723.2 537.6 710.4zM512 889.6 288 889.6c-6.4-25.6-32-44.8-57.6-44.8s-51.2 19.2-57.6 44.8L128 889.6l0-70.4c0-70.4 0-70.4 64-70.4l256 0c64 0 64 0 64 70.4L512 889.6z" fill="#ffffff" p-id="14015"></path><path d="M921.6 121.6 556.8 121.6c-89.6 0-128 25.6-83.2 76.8C480 211.2 704 422.4 704 422.4l0 435.2-64 19.2L640 960c0 0 281.6 0 294.4 0s25.6-32 0-38.4c-25.6-6.4-166.4-57.6-166.4-57.6L768 422.4c0 0 224-217.6 230.4-224C1049.6 140.8 1017.6 121.6 921.6 121.6zM902.4 224l-166.4 153.6L569.6 224C537.6 192 512 172.8 608 172.8l262.4 0C966.4 172.8 928 192 902.4 224z" fill="#ffffff" p-id="14016"></path></svg>