<?xml version="1.0" standalone="no"?><!DOCTYPE svg PUBLIC "-//W3C//DTD SVG 1.1//EN" "http://www.w3.org/Graphics/SVG/1.1/DTD/svg11.dtd"><svg t="1750160487565" class="icon" viewBox="0 0 1024 1024" version="1.1" xmlns="http://www.w3.org/2000/svg" p-id="52982" xmlns:xlink="http://www.w3.org/1999/xlink" width="200" height="200"><path d="M347.413 465.579c12.936 0 24.379 11.443 24.379 24.379s-11.443 24.379-24.379 24.379h-97.017v81.096c0 12.936-11.443 24.379-24.379 24.379s-24.379-11.443-24.379-24.379v-81.096h-97.017c-12.936 0-24.379-11.443-24.379-24.379s11.443-24.379 24.379-24.379h97.017v-48.757h-97.017c-12.936 0-24.379-11.443-24.379-24.379s11.443-24.379 24.379-24.379h79.604l-71.643-71.146c-9.95-9.95-9.95-24.379 0-33.831 9.95-9.95 24.379-9.95 33.831 0l79.604 79.604 79.604-79.604c9.95-9.95 24.379-9.95 33.832 0 9.95 9.95 9.95 24.379 0 33.831l-71.146 71.643h79.604c12.936 0 24.379 11.443 24.379 24.379s-11.443 24.379-24.379 24.379h-97.514v48.757h97.017l-0.001-0.497zM873.458 769.624H137.104c-19.269-0.181-34.783-15.875-34.742-35.145v-3.441c-0.061-19.284 15.458-35 34.742-35.181h736.354c19.284 0.181 34.803 15.897 34.742 35.181v3.331c0.041 19.27-15.473 34.964-34.742 35.145v0.11zM873.458 549.53h-408.85c-19.269-0.181-34.783-15.875-34.742-35.145v-3.441c-0.061-19.284 15.458-35 34.742-35.181h408.85c19.283 0.181 34.803 15.897 34.742 35.181v3.331c0.041 19.27-15.473 34.964-34.742 35.145v0.11zM873.458 329.473H537.387c-19.341-0.181-34.884-15.986-34.742-35.328v-3.295c-0.061-19.284 15.458-35 34.742-35.181h336.071c19.283 0.181 34.803 15.897 34.742 35.181v3.295c0.081 19.299-15.444 35.037-34.742 35.218v0.11z" p-id="52983" fill="#707070"></path></svg>