<?xml version="1.0" standalone="no"?><!DOCTYPE svg PUBLIC "-//W3C//DTD SVG 1.1//EN" "http://www.w3.org/Graphics/SVG/1.1/DTD/svg11.dtd"><svg t="1750160435397" class="icon" viewBox="0 0 1024 1024" version="1.1" xmlns="http://www.w3.org/2000/svg" p-id="49411" xmlns:xlink="http://www.w3.org/1999/xlink" width="200" height="200"><path d="M755.392 535.488H463.296a24.32 24.32 0 1 1 0-48.64h292.032a194.944 194.944 0 0 0 194.752-194.752 24.32 24.32 0 1 1 48.704 0 243.648 243.648 0 0 1-243.392 243.392z" fill="#707070" p-id="49412"></path><path d="M842.752 1022.4H195.584a170.688 170.688 0 0 1-170.368-170.496V170.368A170.56 170.56 0 0 1 195.584 0h634.688a168.704 168.704 0 0 1 168.576 168.512v123.584a24.32 24.32 0 1 1-48.704 0V168.512A119.936 119.936 0 0 0 830.272 48.704H195.584a121.792 121.792 0 0 0-121.664 121.664V851.84c0 67.136 54.656 121.728 121.664 121.728h647.168a107.52 107.52 0 0 0 107.392-107.328v-111.808a24.32 24.32 0 1 1 48.704 0v111.808a156.352 156.352 0 0 1-156.096 156.16z" fill="#707070" p-id="49413"></path><path d="M577.472 681.472a24.384 24.384 0 0 1-17.28-7.04L440.064 554.24a60.48 60.48 0 0 1 0-86.144l120.128-120.128a24.192 24.192 0 0 1 34.368 0 24.384 24.384 0 0 1 0 34.432L474.496 502.464a12.288 12.288 0 0 0 0 17.28l120.128 120.192a24.192 24.192 0 1 1-17.152 41.536z" fill="#707070" p-id="49414"></path></svg>