<?xml version="1.0" standalone="no"?><!DOCTYPE svg PUBLIC "-//W3C//DTD SVG 1.1//EN" "http://www.w3.org/Graphics/SVG/1.1/DTD/svg11.dtd"><svg t="1750150518099" class="icon" viewBox="0 0 1194 1024" version="1.1" xmlns="http://www.w3.org/2000/svg" p-id="7822" xmlns:xlink="http://www.w3.org/1999/xlink" width="233.203125" height="200"><path d="M1034.667 947.627H710.144V312.286h244.975a79.514 79.514 0 0 1 79.53 79.428v555.913zM636.962 232.875v714.752H159.71V153.463a79.514 79.514 0 0 1 79.53-79.41h318.174a79.514 79.514 0 0 1 79.531 79.41v79.412z m517.342 714.752h-46.455V391.714c0-87.688-64.905-152.473-152.73-152.473H710.144v-85.778c0-87.688-65.536-152.49-152.73-152.49h-318.14c-87.824 0-152.746 65.45-152.746 152.49v794.164H40.09c-22.272 0-40.09 15.24-40.09 37.461 0 22.238 17.818 35.584 40.09 35.584h1113.565c22.272 0 40.739-13.346 40.739-35.584 0.631-22.87-17.818-37.478-40.107-37.478z" p-id="7823" fill="#ffffff"></path><path d="M921.924 550.417H829.44c-20.412 0-36.983-16.486-36.983-36.164 0-20.31 16.571-36.164 36.983-36.164h92.467c20.412 0 36.352 16.503 36.352 36.18 0.632 19.662-15.94 36.148-36.352 36.148m0 235.384H829.44a36.932 36.932 0 0 1-36.983-36.796c0-20.31 16.571-36.182 36.983-36.182h92.467c20.412 0 36.352 16.504 36.352 36.182 0.632 20.292-15.94 36.796-36.352 36.796m-403.678 0H272.725c-20.394 0-36.352-16.504-36.352-36.796 0-20.31 16.59-36.182 36.352-36.182h245.521c20.412 0 36.352 16.504 36.352 36.182 0.632 20.292-15.94 36.796-36.352 36.796m0-235.384h-245.52a36.25 36.25 0 0 1-36.353-36.164c0-20.31 16.59-36.164 36.352-36.164h245.521c20.412 0 36.352 16.503 36.352 36.18 0.632 19.662-15.94 36.148-36.352 36.148m0-241.715h-245.52a36.25 36.25 0 0 1-36.353-36.164c0-20.31 16.59-36.165 36.352-36.165h245.521c20.412 0 36.352 16.504 36.352 36.182 0.632 19.643-15.94 36.147-36.352 36.147" p-id="7824" fill="#ffffff"></path></svg>