<?xml version="1.0" standalone="no"?><!DOCTYPE svg PUBLIC "-//W3C//DTD SVG 1.1//EN" "http://www.w3.org/Graphics/SVG/1.1/DTD/svg11.dtd"><svg t="1750160322447" class="icon" viewBox="0 0 1117 1024" version="1.1" xmlns="http://www.w3.org/2000/svg" p-id="40508" xmlns:xlink="http://www.w3.org/1999/xlink" width="218.1640625" height="200"><path d="M1061.161425 327.912727L654.912698 46.219636c-72.983273-57.856-148.852364-24.203636-180.456727 2.792728L42.560698 344.948364c-18.897455 12.567273-49.338182 38.306909-41.192727 69.585454 5.632 21.504 25.6 33.559273 59.298909 35.933091 0.698182 0.093091 1.396364 0.093091 2.094545 0.093091l100.724364 0.139636v447.720728c0 63.394909 49.012364 114.967273 109.242182 114.967272h298.216727c8.797091 0 16.523636-3.909818 22.062546-9.914181a30.254545 30.254545 0 0 0 10.100363-22.341819v-266.100363h146.618182a30.440727 30.440727 0 1 0 0-60.974546l-146.618182-0.046545v-67.304727h146.618182c16.756364 0 30.347636-13.684364 30.347636-30.487273a30.440727 30.440727 0 0 0-30.347636-30.533818h-104.634182l108.497455-116.224a30.673455 30.673455 0 0 0-1.396364-43.147637 30.254545 30.254545 0 0 0-42.868363 1.396364l-137.12291 146.897454L439.407244 366.778182a30.254545 30.254545 0 0 0-42.868364-2.234182 30.626909 30.626909 0 0 0-2.234182 43.101091l106.030546 118.085818H395.840698a30.487273 30.487273 0 0 0 0 60.974546h146.618182v67.351272h-146.618182a30.487273 30.487273 0 0 0 0 61.021091h146.618182v237.335273H272.727971c-26.763636 0-48.546909-24.203636-48.546909-53.946182V425.053091c0-1.396364-0.605091-2.513455-0.791273-3.863273 0.046545-0.279273 0.232727-0.558545 0.232727-0.930909a30.440727 30.440727 0 0 0-30.347636-30.533818L85.196335 389.585455l424.96-291.188364a35.141818 35.141818 0 0 0 2.839272-2.234182c5.306182-4.514909 53.015273-43.287273 104.866909-1.582545l1.722182 1.256727 406.341818 281.786182a162.909091 162.909091 0 0 1 19.921455 17.547636 184.133818 184.133818 0 0 1-14.056727 0.186182l-96.628364 0.372364c-0.279273 0-0.512 0.186182-0.791273 0.186181-0.325818 0-0.512-0.186182-0.837818-0.186181a30.440727 30.440727 0 0 0-30.347636 30.533818l0.139636 472.157091c0 29.742545-21.783273 53.899636-48.500364 53.899636H700.527244a30.440727 30.440727 0 0 0-30.301091 30.533818c0 16.849455 13.591273 30.487273 30.301091 30.487273h154.298181c60.229818 0 109.242182-51.572364 109.242182-114.967273l-0.093091-441.716363 67.304728-0.325819c19.083636 0.325818 70.050909 1.536 82.850909-36.305454 12.474182-37.096727-27.415273-73.355636-52.968728-92.16" fill="#707070" p-id="40509"></path></svg>